<svg width="88" height="45" viewBox="0 0 88 45" xmlns="http://www.w3.org/2000/svg"><title>RedHat Logo</title><g fill="none" fill-rule="evenodd"><path fill="#000" d="M.846 44.518H87.24V30.792H.846z"/><path d="M9.759 38.943c-.067.17-.17.315-.309.437a1.488 1.488 0 0 1-.53.283 2.581 2.581 0 0 1-.765.099c-.364 0-.694-.07-.991-.211a1.694 1.694 0 0 1-.693-.578l.625-.559c.153.179.323.305.51.383.189.076.387.115.599.115.26 0 .45-.038.573-.112.12-.075.182-.196.182-.361a.404.404 0 0 0-.038-.182.38.38 0 0 0-.139-.147 1.149 1.149 0 0 0-.294-.13 5.36 5.36 0 0 0-.496-.13 4.63 4.63 0 0 1-.548-.162 1.523 1.523 0 0 1-.429-.236.96.96 0 0 1-.28-.36 1.324 1.324 0 0 1-.098-.542c0-.196.04-.375.12-.532.08-.156.192-.29.332-.4.14-.111.304-.194.491-.252.188-.058.39-.086.605-.086.339 0 .635.059.889.18.253.122.483.29.69.507l-.626.61a1.632 1.632 0 0 0-.449-.333 1.215 1.215 0 0 0-.535-.114c-.116 0-.213.012-.291.033a.625.625 0 0 0-.193.091.324.324 0 0 0-.136.266c0 .07.014.13.04.178a.35.35 0 0 0 .14.125c.066.038.155.074.266.106.112.034.254.07.428.111.173.042.346.09.516.148.173.055.327.132.465.232.139.099.251.224.338.378.087.151.13.346.13.582 0 .207-.033.395-.1.563M13.785 39.244c-.31.345-.741.517-1.293.517-.26 0-.497-.044-.713-.13a1.486 1.486 0 0 1-.553-.382 1.754 1.754 0 0 1-.357-.617 2.619 2.619 0 0 1-.126-.846v-2.438h.862v2.427c0 .351.078.63.234.831a.78.78 0 0 0 .653.305c.278 0 .497-.1.656-.299.16-.198.24-.472.24-.826v-2.438h.86v2.427c0 .633-.156 1.122-.463 1.469M17.662 36.33c-.114-.088-.268-.133-.463-.133h-1v1.106h1.013c.413 0 .62-.186.62-.558 0-.189-.055-.326-.17-.415m.945 1.045c-.08.18-.188.328-.328.444-.142.115-.31.2-.5.255-.193.052-.401.08-.625.08H16.2v1.538h-.861v-4.344h1.895c.202 0 .393.028.575.083a1.274 1.274 0 0 1 .8.69c.078.17.117.374.117.604 0 .253-.04.47-.118.65M21.873 36.33c-.115-.088-.269-.133-.463-.133h-1.001v1.106h1.013c.414 0 .621-.186.621-.558 0-.189-.056-.326-.17-.415m.945 1.045c-.08.18-.188.328-.329.444-.142.115-.308.2-.5.255-.193.052-.4.08-.625.08h-.955v1.538h-.86v-4.344h1.893c.204 0 .395.028.577.083.182.055.34.14.477.26.136.114.243.258.322.43.078.17.118.374.118.604 0 .253-.04.47-.118.65M26.162 36.503a.901.901 0 0 0-.744-.36.885.885 0 0 0-.734.354c-.183.235-.274.574-.274 1.016 0 .443.094.786.285 1.025.189.24.437.36.743.36a.881.881 0 0 0 .732-.354c.184-.236.277-.574.277-1.018 0-.442-.096-.784-.285-1.023m1.037 1.956a2.009 2.009 0 0 1-.393.704c-.17.193-.372.338-.607.445a1.927 1.927 0 0 1-.774.154c-.285 0-.544-.051-.778-.154a1.619 1.619 0 0 1-.6-.44 2.056 2.056 0 0 1-.39-.703 2.918 2.918 0 0 1-.14-.939c0-.35.047-.666.14-.944.092-.275.224-.512.393-.703.17-.192.372-.342.607-.444.235-.103.496-.154.781-.154.28 0 .537.05.77.15.233.102.434.25.6.441.168.194.299.428.39.701.094.275.14.589.14.94 0 .354-.046.668-.14.946M30.666 36.325c-.11-.085-.262-.127-.457-.127h-1.137v1.11h1.137c.414 0 .622-.186.622-.56 0-.196-.055-.339-.165-.423zm.057 3.368l-.776-1.566h-.875v1.566h-.86V35.35h2.018c.202 0 .394.027.576.083.182.054.341.14.478.257.135.117.243.26.32.432.08.171.118.374.118.604 0 .327-.068.597-.206.805-.139.21-.346.367-.623.474l.829 1.69h-1zM34.31 36.198v3.496h-.86v-3.496h-1.245v-.85h3.35v.85zM36.397 39.693v-4.346H39.4v.851h-2.142v.745h1.245v.85h-1.245v1.05h2.235v.85zM42.737 36.53c-.203-.223-.535-.333-.995-.333h-.46v2.646h.43c.227 0 .425-.033.593-.096.168-.063.306-.152.413-.268.108-.115.188-.255.242-.418.054-.163.082-.344.082-.54 0-.44-.102-.773-.305-.991m1.007 1.975c-.126.275-.292.499-.501.676a2.044 2.044 0 0 1-.714.388 2.723 2.723 0 0 1-.813.124h-1.294v-4.345h1.356c.31 0 .595.038.857.114.264.078.49.203.681.375.193.176.344.398.452.674.11.276.164.613.164 1.01 0 .38-.063.71-.188.984M48.595 37.744h-1.152v1.124h1.152c.211 0 .367-.05.468-.152a.556.556 0 0 0 .151-.413c0-.374-.205-.559-.62-.559m.36-1.485c-.082-.07-.218-.103-.408-.103h-1.103v.818h1.146c.182 0 .309-.039.38-.115a.4.4 0 0 0 .11-.292c0-.134-.042-.238-.125-.308m1.04 2.635a1.185 1.185 0 0 1-.311.442 1.346 1.346 0 0 1-.487.267c-.19.06-.4.092-.63.092h-1.97v-4.346h1.987c.422 0 .755.097 1.002.293.248.196.373.48.373.855 0 .185-.041.35-.122.495a.924.924 0 0 1-.336.349c.173.079.318.195.433.353a.983.983 0 0 1 .173.596c0 .227-.038.43-.111.604M52.856 37.973v1.72h-.861v-1.7l-1.64-2.645h.997l.613 1.031c.035.066.078.139.125.22.047.08.092.162.136.242.043.081.082.155.12.223.037.068.066.122.085.164l.086-.164.12-.22.132-.24.13-.225.614-1.031h.984l-1.641 2.625zM59.447 36.325c-.111-.085-.263-.127-.458-.127h-1.136v1.11h1.136c.415 0 .622-.186.622-.56 0-.196-.054-.339-.164-.423zm.057 3.368l-.776-1.566h-.875v1.566h-.861V35.35h2.019c.202 0 .394.027.576.083.182.054.34.14.476.257.137.117.244.26.321.432.08.171.118.374.118.604 0 .327-.07.597-.206.805a1.27 1.27 0 0 1-.623.474l.829 1.69h-.998zM61.413 39.693v-4.346h3.003v.851h-2.142v.745h1.245v.85h-1.245v1.05h2.235v.85zM67.752 36.53c-.203-.223-.534-.333-.994-.333h-.46v2.646h.43c.228 0 .425-.033.592-.096a1.04 1.04 0 0 0 .413-.268c.11-.115.189-.255.245-.418.053-.163.08-.344.08-.54 0-.44-.102-.773-.306-.991m1.007 1.975c-.125.275-.293.499-.5.676a2.057 2.057 0 0 1-.712.388 2.739 2.739 0 0 1-.815.124h-1.294v-4.345h1.357c.309 0 .594.038.857.114.261.078.49.203.68.375.192.176.344.398.453.674.109.276.164.613.164 1.01 0 .38-.064.71-.19.984M74.255 39.693v-1.826h-1.784v1.826h-.86v-4.346h.86v1.67h1.784v-1.67h.861v4.346zM78.206 37.11a9.125 9.125 0 0 1-.217-.677 4.74 4.74 0 0 1-.09.305c-.04.12-.08.245-.127.372l-.278.789h.99l-.278-.789zm.916 2.584l-.34-.97h-1.585l-.34.97h-.93l1.66-4.345h.843l1.646 4.345h-.954zM82.12 36.198v3.496h-.861v-3.496h-1.245v-.85h3.35v.85z" fill="#FFF"/><g><g fill="#FFF"><path d="M34.428 14.26c0-1.223-.022-2.121-.078-2.937h2.026l.088 1.735h.064c.454-1.285 1.535-1.938 2.529-1.938.23 0 .364.008.546.05v2.17a3.288 3.288 0 0 0-.707-.062c-1.109 0-1.877.7-2.086 1.749a3.434 3.434 0 0 0-.066.692v4.74h-2.338l.022-6.2zM46.48 14.904c.012-.848-.36-2.225-1.928-2.225-1.436 0-2.036 1.288-2.132 2.225h4.06zm-4.057 1.61c.063 1.655 1.349 2.378 2.85 2.378 1.073 0 1.843-.167 2.547-.424l.345 1.593c-.789.33-1.885.582-3.229.582-2.988 0-4.75-1.836-4.75-4.636 0-2.52 1.545-4.906 4.516-4.906 3.003 0 3.977 2.444 3.977 4.444 0 .426-.036.77-.083.988l-6.173-.018zM58.733 7.803l-2.33-.65v5.155h-.036c-.415-.677-1.321-1.188-2.591-1.188-2.217 0-4.15 1.817-4.14 4.875 0 2.811 1.747 4.671 3.955 4.671 1.331 0 2.446-.63 2.993-1.65h.046l.104 1.445h2.08a39.925 39.925 0 0 1-.08-2.564V7.803zm-2.33 8.697c0 .236-.014.465-.064.674-.236.996-1.07 1.64-2.022 1.64-1.466 0-2.316-1.22-2.316-2.901 0-1.693.84-3.009 2.342-3.009 1.05 0 1.802.732 2.002 1.622.052.186.058.418.058.604v1.37zM64.912 11.107c-.704 0-1.335.202-1.867.524-.547.316-.992.81-1.261 1.32h-.035V8.672l-.92-.264v12.051h.92v-5.593c0-.366.028-.628.123-.898.398-1.135 1.477-2.069 2.79-2.069 1.89 0 2.542 1.5 2.542 3.147v5.413h.915v-5.513c0-3.406-2.335-3.839-3.207-3.839M75.408 15.569c-2.012-.052-4.667.248-4.667 2.444 0 1.313.874 1.903 1.84 1.903 1.536 0 2.412-.947 2.727-1.831.072-.197.1-.39.1-.55V15.57zm.91 2.716c0 .727.027 1.475.142 2.173h-.843l-.142-1.31h-.045c-.444.706-1.47 1.523-2.94 1.523-1.858 0-2.726-1.3-2.726-2.515 0-2.113 1.88-3.384 5.644-3.343v-.244c0-.904-.18-2.71-2.365-2.695-.811 0-1.65.21-2.318.68l-.293-.655c.843-.57 1.874-.792 2.71-.792 2.669 0 3.176 1.977 3.176 3.615v3.563zM79.96 9.299v2.018h2.629v.732H79.96v5.945c0 1.163.36 1.89 1.355 1.89.478 0 .812-.064 1.05-.145l.113.7c-.298.131-.717.223-1.281.223-.668 0-1.233-.214-1.586-.65-.424-.48-.568-1.25-.568-2.18v-5.783h-1.556v-.732h1.556V9.632l.917-.333zM83.751 19.884v-.21h.142c.072 0 .154.014.154.096 0 .106-.082.114-.18.114h-.116zm0 .088h.114l.187.297h.12l-.203-.3c.107-.008.182-.066.182-.192 0-.135-.082-.195-.25-.195h-.259v.687h.11v-.297z"/><path d="M83.869 19.373a.554.554 0 1 0 0 1.107.548.548 0 0 0 .556-.555.548.548 0 0 0-.556-.552m.683.552a.677.677 0 0 1-.683.675c-.373 0-.681-.3-.681-.675 0-.373.308-.671.68-.671.378 0 .684.298.684.67"/></g><path d="M25.398 20.67a7.055 7.055 0 0 0-1.627-.197c-.952 0-1.822.168-2.46.429a.218.218 0 0 0-.12.192c0 .026.01.063.018.082.072.22-.05.46-.667.589-.924.202-1.495 1.134-1.828 1.45-.388.363-1.489.591-1.328.376.132-.173.628-.707.927-1.282.273-.518.51-.66.843-1.152.096-.143.469-.651.584-1.05.116-.388.08-.879.126-1.078.066-.288.342-.92.363-1.28.015-.203-.85.29-1.255.29-.417 0-.806-.24-1.172-.257-.46-.024-.749.345-1.154.28-.233-.04-.432-.241-.837-.258-.588-.022-1.29.323-2.627.279-1.314-.041-2.524-1.64-2.69-1.893-.195-.302-.433-.302-.688-.068-.26.235-.581.05-.67-.104-.168-.296-.63-1.17-1.347-1.352-.985-.253-1.484.541-1.417 1.167.067.64.482.822.676 1.16.196.344.294.562.663.714.254.107.348.266.275.475-.071.18-.34.227-.515.23a1.387 1.387 0 0 1-.831-.203c-.22-.139-.398-.337-.6-.667-.227-.367-.58-.528-.993-.528-.193 0-.384.05-.55.133a4.897 4.897 0 0 1-2.246.535h-.938a13.065 13.065 0 0 1-.702-4.266C.61 6.05 6.644.083 14.082.083 21.53.083 27.56 6.05 27.56 13.416c0 2.675-.79 5.168-2.162 7.254" fill="#000"/><path d="M25.398 20.668a7.207 7.207 0 0 0-1.627-.195c-.952 0-1.822.164-2.46.43a.211.211 0 0 0-.12.19c0 .027.01.059.018.083.072.22-.05.455-.667.589-.924.202-1.495 1.135-1.828 1.45-.388.365-1.489.591-1.328.37.132-.167.628-.7.927-1.275.273-.519.51-.66.843-1.151.096-.144.469-.653.584-1.051.116-.388.08-.88.126-1.08.066-.29.342-.919.363-1.278.015-.203-.85.29-1.255.29-.417 0-.806-.244-1.172-.262-.46-.019-.749.346-1.154.284-.233-.04-.432-.241-.837-.258-.588-.023-1.29.32-2.627.276-1.314-.038-2.524-1.642-2.69-1.89-.195-.302-.433-.302-.688-.069-.26.236-.581.048-.67-.107-.168-.297-.63-1.166-1.347-1.348-.985-.253-1.484.54-1.417 1.167.067.64.482.822.676 1.16.196.344.294.563.663.714.254.107.348.266.275.473-.071.184-.34.228-.515.232-.373.02-.636-.08-.831-.203-.22-.145-.398-.337-.6-.667-.227-.369-.58-.528-.993-.528-.193 0-.384.05-.55.133a4.897 4.897 0 0 1-2.246.535h-.938c1.796 5.274 6.832 9.072 12.77 9.072 4.749 0 8.912-2.422 11.315-6.086" fill="#FFF"/><path d="M27.424 19.87v-.216h.146c.072 0 .15.015.15.103 0 .1-.078.112-.174.112h-.122zm0 .088h.12l.185.292h.126l-.206-.299c.104-.012.18-.067.18-.192 0-.14-.08-.194-.247-.194h-.262v.685h.104v-.292z" fill="#000"/><path d="M27.545 19.353a.556.556 0 0 0 0 1.113.555.555 0 1 0 0-1.113m.687.553a.681.681 0 0 1-.687.678.68.68 0 0 1-.679-.678.682.682 0 0 1 1.366 0M17.05 19.446c.075.067.194.293.045.575a1.17 1.17 0 0 1-.322.382c-.198.155-.565.327-1.076.009-.274-.172-.29-.232-.662-.182-.275.032-.379-.237-.278-.46.093-.22.491-.405.989-.116.218.13.567.404.872.16a2.88 2.88 0 0 0 .376-.364c.008-.01.016-.015.03-.015 0 0 .024.003.026.01" fill="#000"/><path d="M21.692 9.87c-.135.443-.329 1.008-1.169 1.44-.122.066-.169-.04-.11-.137.317-.537.375-.67.466-.884.125-.307.197-.746-.063-1.666-.506-1.804-1.564-4.212-2.333-5-.74-.753-2.085-.965-3.294-.657-.454.116-1.324.564-2.952.2-2.804-.625-3.223.772-3.385 1.374-.16.606-.543 2.33-.543 2.33-.132.699-.3 1.92 4.064 2.744 2.024.382 2.13.902 2.22 1.276.163.672.424 1.055.71 1.243.292.194 0 .353-.32.387-.862.086-4.064-.822-5.959-1.884-1.542-.94-1.575-1.779-1.212-2.495-2.348-.247-4.097.217-4.418 1.313-.544 1.875 4.174 5.09 9.555 6.703 5.642 1.687 11.451.509 12.096-3.002.29-1.593-1.065-2.778-3.353-3.285m-7.019-5.982h-.01a.041.041 0 0 1-.041-.04c0-.016.008-.034.027-.035.294-.156.75-.284 1.265-.339.154-.01.3-.027.449-.027h.079c.865.023 1.55.366 1.548.768-.015.392-.725.704-1.592.682a3.132 3.132 0 0 1-.761-.106c-.031-.012-.048-.033-.048-.06 0-.022.017-.047.048-.058.542-.125.9-.322.877-.517-.035-.248-.735-.383-1.579-.303-.089.007-.176.02-.262.035m-1.636 2.544c-1.557.114-1.719.278-2.011.584-.41.435-.955-.558-.955-.558-.326-.07-.714-.59-.505-1.076.21-.472.6-.332.717-.186.15.18.47.48.873.472.406-.009.875-.098 1.535-.098.67 0 1.114.253 1.14.461.027.179-.053.35-.794.4" fill="#CA2129"/></g></g></svg>