<svg xmlns="http://www.w3.org/2000/svg" width="61.75px" height="52.25px" viewBox="0 0 61.75 52.25">
<path fill="#58C7E4" d="M9.718,7.337c0,1.409-0.464,2.635-1.346,3.516c-0.875,0.878-2.104,1.34-3.515,1.34 c-1.41,0-2.635-0.462-3.514-1.34C0.462,9.972,0,8.746,0,7.337V4.861c0-1.412,0.462-2.639,1.344-3.516C2.223,0.462,3.447,0,4.857,0 c1.411,0,2.64,0.462,3.515,1.345c0.882,0.877,1.346,2.104,1.346,3.516V7.337z M7.335,4.675c0-1.457-0.951-2.477-2.478-2.477 c-1.572,0-2.476,0.904-2.476,2.477v2.868c0,1.549,0.903,2.453,2.476,2.453c1.574,0,2.478-0.904,2.478-2.453V4.675z"/>
<path fill="#58C7E4" d="M12.215,2.013c0-0.646,0.419-1.222,1.017-1.411C14.393,0.233,15.593,0,16.843,0 c1.365,0,2.521,0.44,3.354,1.298c0.833,0.832,1.295,1.99,1.295,3.33v2.914c0,1.366-0.44,2.568-1.271,3.402 c-0.83,0.857-1.852,1.249-3.216,1.249c-0.762,0-1.689-0.277-2.406-0.604v2.826c0,0.67-0.531,1.204-1.179,1.204 c-0.673,0-1.204-0.534-1.204-1.204V2.013z M19.109,4.442c0-1.41-0.83-2.244-2.267-2.244c-0.766,0-1.504,0.095-2.245,0.28v6.707 c0.646,0.532,1.411,0.81,2.245,0.81c1.437,0,2.267-0.81,2.267-2.244V4.442z"/>
<path fill="#58C7E4" d="M26.074,7.221c0,0.947,0.159,1.573,0.459,1.99c0.397,0.506,0.998,0.785,1.783,0.785 c0.882,0,1.714-0.257,2.502-0.602c0.159-0.071,0.323-0.115,0.483-0.115c0.581,0,1.133,0.485,1.133,1.088 c0,0.439-0.185,0.832-0.602,1.039c-1.108,0.533-2.288,0.787-3.517,0.787c-1.341,0-2.495-0.439-3.354-1.296 c-0.83-0.83-1.269-1.989-1.269-3.354V4.629c0-1.341,0.438-2.499,1.269-3.331C25.821,0.439,26.976,0,28.316,0 c1.366,0,2.52,0.439,3.354,1.297c0.836,0.832,1.295,1.99,1.295,3.331v1.085c0,0.834-0.671,1.507-1.503,1.507H26.074z M30.583,5.021 c0-1.919-0.786-2.824-2.267-2.824c-1.455,0-2.242,0.882-2.242,2.824H30.583z"/>
<path fill="#58C7E4" d="M42.361,4.442c0-1.41-0.834-2.244-2.27-2.244c-0.763,0-1.524,0.116-2.242,0.302v8.488 c0,0.673-0.532,1.205-1.182,1.205c-0.67,0-1.203-0.532-1.203-1.205V2.013c0-0.646,0.396-1.199,1.021-1.411 C37.618,0.212,38.844,0,40.092,0c1.366,0,2.523,0.44,3.355,1.298c0.834,0.832,1.298,1.99,1.298,3.33v6.36 c0,0.673-0.535,1.205-1.204,1.205c-0.671,0-1.18-0.532-1.18-1.205V4.442z"/>
<path fill="#58C7E4" d="M2.336,26.543c-1.249-0.461-2.218-1.433-2.218-3.168c0-2.034,1.686-3.496,4.003-3.496 c1.571,0,2.381,0.233,3.142,0.583c0.465,0.186,0.764,0.602,0.764,1.083c0,0.603-0.485,1.112-1.108,1.112 c-0.161,0-0.394-0.046-0.557-0.114c-0.577-0.279-1.527-0.464-2.289-0.464c-0.948,0-1.574,0.464-1.574,1.248 c0,0.605,0.463,0.975,0.948,1.136l2.269,0.739c1.525,0.51,2.452,1.551,2.452,3.238c0,2.036-1.643,3.635-4.117,3.635 c-1.369,0-2.477-0.257-3.331-0.648C0.276,31.217,0,30.822,0,30.363c0-0.603,0.508-1.162,1.155-1.162 c0.162,0,0.372,0.072,0.534,0.142c0.624,0.326,1.387,0.532,2.407,0.532c1.107,0,1.688-0.415,1.688-1.203 c0-0.855-0.693-1.132-1.551-1.434L2.336,26.543z"/>
<path fill="#58C7E4" d="M19.873,27.214c0,1.411-0.461,2.637-1.341,3.519c-0.882,0.878-2.106,1.341-3.517,1.341 c-1.411,0-2.638-0.463-3.516-1.341c-0.881-0.882-1.343-2.108-1.343-3.519v-2.473c0-1.414,0.462-2.638,1.343-3.518 c0.878-0.88,2.104-1.344,3.516-1.344c1.41,0,2.635,0.464,3.517,1.344c0.88,0.88,1.341,2.104,1.341,3.518V27.214z M17.489,24.553 c0-1.456-0.949-2.474-2.474-2.474c-1.575,0-2.476,0.903-2.476,2.474v2.87c0,1.551,0.9,2.451,2.476,2.451 c1.571,0,2.474-0.9,2.474-2.451V24.553z"/>
<path fill="#58C7E4" d="M29.173,21.084c0-0.671,0.509-1.205,1.18-1.205c0.67,0,1.203,0.534,1.203,1.205v8.974 c0,0.649-0.414,1.203-1.016,1.414c-1.133,0.393-2.36,0.602-3.632,0.602c-1.343,0-2.545-0.394-3.401-1.251 c-0.834-0.833-1.228-2.035-1.228-3.399v-6.34c0-0.671,0.532-1.205,1.204-1.205c0.647,0,1.18,0.534,1.18,1.205v6.524 c0,1.432,0.832,2.244,2.245,2.244c0.785,0,1.549-0.092,2.265-0.278V21.084z"/>
<path fill="#58C7E4" d="M34.472,23.327c0-1.965,1.479-3.447,3.449-3.447c0.576,0,1.154,0.071,1.735,0.186 c0.554,0.117,0.945,0.582,0.945,1.134c0,0.624-0.463,1.11-1.133,1.11c-0.14,0-0.208,0-0.394-0.047 c-0.369-0.092-0.785-0.184-1.154-0.184c-0.579,0-1.067,0.486-1.067,1.067v7.724c0,0.672-0.531,1.205-1.18,1.205 c-0.669,0-1.202-0.533-1.202-1.205V23.327z"/>
<path fill="#58C7E4" d="M41.761,24.507c0-1.34,0.439-2.497,1.271-3.331c0.855-0.857,2.014-1.297,3.354-1.297 c1.135,0,2.221,0.255,3.216,0.743c0.441,0.205,0.671,0.624,0.671,1.065c0,0.576-0.488,1.083-1.135,1.083 c-0.207,0-0.392-0.068-0.554-0.137c-0.675-0.299-1.434-0.554-2.198-0.554c-1.411,0-2.244,0.83-2.244,2.245v3.285 c0,1.432,0.833,2.242,2.244,2.242c0.765,0,1.599-0.252,2.269-0.579c0.16-0.091,0.321-0.114,0.509-0.114 c0.576,0,1.109,0.464,1.109,1.112c0,0.437-0.253,0.853-0.694,1.06c-0.994,0.487-2.058,0.744-3.192,0.744 c-1.341,0-2.499-0.442-3.354-1.295c-0.832-0.833-1.271-1.991-1.271-3.356V24.507z"/>
<path fill="#58C7E4" d="M54.322,27.103c0,0.945,0.163,1.57,0.462,1.987c0.394,0.509,0.995,0.785,1.781,0.785 c0.88,0,1.714-0.252,2.5-0.602c0.163-0.071,0.321-0.114,0.485-0.114c0.575,0,1.133,0.486,1.133,1.087 c0,0.436-0.185,0.835-0.601,1.039c-1.107,0.533-2.288,0.789-3.518,0.789c-1.339,0-2.498-0.442-3.353-1.294 c-0.833-0.834-1.273-1.991-1.273-3.357v-2.915c0-1.341,0.44-2.497,1.273-3.332c0.854-0.856,2.014-1.297,3.353-1.297 c1.366,0,2.522,0.441,3.355,1.297c0.832,0.835,1.296,1.991,1.296,3.332v1.089c0,0.834-0.67,1.506-1.503,1.506H54.322z  M58.835,24.901c0-1.92-0.789-2.823-2.27-2.823c-1.455,0-2.243,0.881-2.243,2.823H58.835z"/>
<path fill="#58C7E4" d="M20.41,48.598c0.785,0.334,1.12,1.247,0.784,2.031c-0.316,0.745-1.206,1.136-1.991,0.8 c-0.783-0.332-1.161-1.264-0.847-2.007C18.693,48.638,19.628,48.261,20.41,48.598"/>
<path fill="#58C7E4" d="M23.715,43.986c0-1.34,0.438-2.498,1.271-3.331c0.858-0.854,2.013-1.297,3.354-1.297 c1.136,0,2.222,0.258,3.217,0.744c0.441,0.206,0.67,0.623,0.67,1.063c0,0.581-0.484,1.088-1.132,1.088 c-0.209,0-0.394-0.071-0.556-0.14c-0.67-0.298-1.433-0.554-2.199-0.554c-1.409,0-2.242,0.833-2.242,2.244v3.282 c0,1.437,0.833,2.244,2.242,2.244c0.767,0,1.598-0.253,2.269-0.578c0.164-0.092,0.324-0.116,0.51-0.116 c0.577,0,1.108,0.466,1.108,1.112c0,0.441-0.253,0.857-0.693,1.066c-0.994,0.484-2.058,0.74-3.193,0.74 c-1.341,0-2.495-0.44-3.354-1.294c-0.834-0.835-1.271-1.991-1.271-3.358V43.986z"/>
<path fill="#58C7E4" d="M43.61,46.696c0,1.41-0.462,2.633-1.342,3.515c-0.88,0.879-2.104,1.342-3.517,1.342 c-1.41,0-2.637-0.463-3.517-1.342c-0.876-0.882-1.34-2.105-1.34-3.515v-2.477c0-1.412,0.464-2.64,1.34-3.516 c0.88-0.881,2.106-1.344,3.517-1.344c1.413,0,2.637,0.463,3.517,1.344c0.88,0.876,1.342,2.104,1.342,3.516V46.696z M41.229,44.033 c0-1.455-0.949-2.474-2.477-2.474c-1.573,0-2.475,0.903-2.475,2.474V46.9c0,1.552,0.901,2.452,2.475,2.452 c1.575,0,2.477-0.9,2.477-2.452V44.033z"/>
<path fill="#58C7E4" d="M58.835,43.545c0-1.083-0.903-1.986-1.991-1.986c-0.722,0-1.41,0.23-1.99,0.598v8.191 c0,0.673-0.531,1.204-1.202,1.204c-0.648,0-1.18-0.531-1.18-1.204v-7.101c0-1.345-0.88-1.688-1.896-1.688 c-0.835,0-1.344,0.113-2.084,0.323v8.466c0,0.673-0.531,1.204-1.179,1.204c-0.671,0-1.203-0.531-1.203-1.204V41.44 c0-0.624,0.395-1.176,0.972-1.41c1.203-0.459,2.385-0.672,3.726-0.672c1.11,0,2.079,0.35,2.799,0.95 c0.951-0.625,2.081-0.95,3.238-0.95c2.499,0,4.373,1.878,4.373,4.373v6.617c0,0.673-0.533,1.204-1.201,1.204 c-0.673,0-1.181-0.531-1.181-1.204V43.545z"/>
</svg>
